PathFileType	4	(X/Y/Z)	s08c0301.trc
DataRate	CameraRate	NumFrames	NumMarkers	Units	OrigDataRate	OrigDataStartFrame	OrigNumFrames
200	200	5	50	mm	200	0	2000
Frame#	Time	racr			lacr			c7			jug			rlel			rdr			llel			ldr			s2			lic			ric			lasi			rasi			rpsi			lpsi			rgt			lgt			rth1			rth2			rth3			rth4			rlfc			rmfc			rsh1			rsh2			rsh3			rsh4			rlmal			rmmal			rcal			rtoe			rmt5			lth1			lth2			lth4			lth3			llfc			lmfc			llmal			lmmal			lcal			lmt5			lsh1			lsh2			lsh3			lsh4			ltoe			SBIKE			LBIKE			RBIKE			
		X1	Y1	Z1	X2	Y2	Z2	X3	Y3	Z3	X4	Y4	Z4	X5	Y5	Z5	X6	Y6	Z6	X7	Y7	Z7	X8	Y8	Z8	X9	Y9	Z9	X10	Y10	Z10	X11	Y11	Z11	X12	Y12	Z12	X13	Y13	Z13	X14	Y14	Z14	X15	Y15	Z15	X16	Y16	Z16	X17	Y17	Z17	X18	Y18	Z18	X19	Y19	Z19	X20	Y20	Z20	X21	Y21	Z21	X22	Y22	Z22	X23	Y23	Z23	X24	Y24	Z24	X25	Y25	Z25	X26	Y26	Z26	X27	Y27	Z27	X28	Y28	Z28	X29	Y29	Z29	X30	Y30	Z30	X31	Y31	Z31	X32	Y32	Z32	X33	Y33	Z33	X34	Y34	Z34	X35	Y35	Z35	X36	Y36	Z36	X37	Y37	Z37	X38	Y38	Z38	X39	Y39	Z39	X40	Y40	Z40	X41	Y41	Z41	X42	Y42	Z42	X43	Y43	Z43	X44	Y44	Z44	X45	Y45	Z45	X46	Y46	Z46	X47	Y47	Z47	X48	Y48	Z48	X49	Y49	Z49	X50	Y50	Z50	
0	0.0000	835.054851	1374.154613	-198.230103	792.119867	1357.947328	-509.697239	786.327208	1420.404294	-346.116128	749.886280	1262.779532	-334.650021	746.249107	1171.438480	-8.519480	809.652890	893.324928	-66.348668	631.048346	1105.195299	-545.566234	803.148019	918.144499	-458.153835	229.493582	1274.834035	-197.174583	339.867676	1254.949916	-377.120889	427.951412	1254.155547	-77.519055	0.000000	0.000000	-0.000000	424.593294	1189.495896	-113.402845	279.178331	1308.269309	-152.677179	255.119695	1317.016606	-244.281684	332.228905	1146.292570	-25.396251	285.960593	1159.716415	-400.884144	399.914195	987.109144	-37.553659	445.258513	911.090507	-47.055787	446.988567	824.387836	-50.136736	475.789233	921.786866	-65.223375	462.490038	706.270305	-62.670600	433.187732	703.973092	-169.937909	352.061896	631.346967	-27.301930	306.528625	556.129595	-47.154377	232.989557	513.065376	-49.377363	347.834419	550.955274	-96.901231	137.531250	435.286039	-54.992783	187.811914	451.201993	-161.748922	75.077352	480.444972	-105.577230	0.000000	0.000000	-0.000000	0.000000	0.000000	-0.000000	363.643746	1048.024309	-417.433358	434.989961	998.256495	-424.086853	463.433362	1020.771026	-416.873647	471.543000	917.057204	-428.876600	535.532339	799.809243	-413.783287	0.000000	0.000000	-0.000000	346.919395	424.110975	-400.447598	375.733940	436.829980	-321.168933	275.508170	406.278556	-358.311122	471.259150	325.344748	-429.155160	480.770417	681.921340	-433.516704	461.976066	599.880791	-413.995741	404.527976	533.816665	-411.409169	485.751803	593.422964	-383.309240	557.275801	348.437009	-366.655146	-139.881442	941.274300	-229.992513	15.501802	79.820319	-427.954216	16.903926	80.373237	-29.255735	
1	0.0050	835.044893	1372.632369	-195.761141	794.782393	1354.854694	-507.794288	787.683361	1417.548333	-344.690538	751.599276	1259.912152	-332.292199	746.137711	1169.280337	-7.420439	810.659791	892.882951	-64.800051	631.747099	1103.717376	-546.292801	803.029109	917.333854	-457.402917	229.042348	1272.522869	-197.520026	340.543202	1251.297380	-378.113989	427.163662	1252.644834	-78.193565	0.000000	0.000000	-0.000000	423.942096	1188.424251	-113.698930	278.488021	1306.859280	-153.211313	255.322571	1314.059446	-245.102211	332.286898	1145.365355	-25.048608	285.233799	1155.377918	-400.824372	401.452190	987.383256	-36.679958	447.962804	912.122016	-46.281988	450.863192	825.319548	-49.274275	478.711552	922.915401	-63.091010	468.516763	708.142060	-62.885518	438.646273	705.900672	-170.024184	357.150599	636.195856	-27.182016	309.435657	562.033489	-47.555998	234.731656	520.912380	-49.898300	353.776019	558.453234	-96.784850	137.643332	446.079219	-55.322775	188.107474	461.431446	-162.269594	75.511840	491.568942	-106.036895	0.000000	0.000000	-0.000000	0.000000	0.000000	-0.000000	362.203920	1042.646631	-416.909836	432.704111	991.561001	-422.999457	461.467701	1013.580668	-415.785375	467.815731	909.787301	-427.148198	529.920051	792.087242	-411.758899	0.000000	0.000000	-0.000000	347.534671	412.948079	-400.732181	374.704887	423.863914	-320.625511	276.355459	395.136038	-358.744960	472.069660	313.701737	-428.799200	477.238613	673.140681	-432.015492	459.879323	590.658433	-412.891332	403.811145	523.399715	-411.078303	483.162520	584.875177	-381.752219	558.047847	336.619888	-366.288023	-139.667870	941.247573	-229.813626	15.539563	79.793792	-427.931860	16.879702	80.440539	-29.149190	
2	0.0100	840.859079	1372.783004	-213.406727	796.449190	1352.131825	-506.614887	789.031031	1414.984060	-343.021374	763.980396	1254.934688	-335.172402	746.301326	1167.192329	-6.445563	809.686785	891.154150	-64.441650	632.420646	1101.880871	-547.108533	802.922494	916.397171	-456.586658	228.399507	1270.403171	-198.334848	341.326391	1247.517005	-379.050725	426.314713	1251.106067	-78.925239	0.000000	0.000000	-0.000000	423.055564	1187.355880	-114.056548	277.723626	1304.963330	-154.395113	255.019775	1311.524429	-246.419507	331.991045	1144.444026	-24.864720	284.746489	1150.826092	-400.937904	402.579467	987.381281	-35.683962	450.408488	912.935285	-45.440756	454.853534	826.122109	-48.726692	480.963798	924.312653	-62.576636	474.679181	710.162565	-63.277893	444.577695	707.717568	-170.285489	361.951302	641.278496	-27.906978	312.620312	568.006432	-48.068710	236.881202	528.814168	-50.516833	356.628845	563.894275	-97.218505	138.305974	456.986695	-55.699507	189.035553	471.691579	-162.771608	76.361095	502.628386	-106.453173	0.000000	0.000000	-0.000000	0.000000	0.000000	-0.000000	360.799123	1036.982278	-416.450943	430.301491	984.497290	-421.988463	459.450610	1006.021403	-414.811008	463.886347	902.070350	-425.463997	524.322224	784.245307	-410.073180	0.000000	0.000000	-0.000000	347.629050	402.022506	-400.708883	375.981179	414.857528	-321.178748	276.571469	384.517818	-358.988017	472.293873	302.247016	-428.289145	473.512556	664.195028	-430.212785	457.382235	581.423187	-411.633381	402.206402	514.212865	-412.244882	480.410098	575.848424	-379.924292	558.450395	324.976599	-365.831414	-139.421058	941.222570	-229.651173	15.645105	79.775257	-427.907678	16.874823	80.382260	-29.109618	
3	0.0150	845.858912	1373.146689	-228.731589	800.266071	1348.472567	-503.117139	790.371607	1412.654841	-341.084061	776.308194	1251.090602	-339.043153	746.174681	1165.227907	-7.462048	806.795643	890.881358	-65.329444	633.848037	1101.432623	-551.184825	803.530114	913.326973	-452.975112	227.482979	1268.605237	-199.483538	342.462768	1243.356711	-380.264220	425.237045	1249.507225	-80.228927	0.000000	0.000000	-0.000000	422.114144	1186.127992	-114.482637	276.692413	1302.484636	-156.004731	254.569131	1308.049358	-248.127961	331.340848	1143.418616	-24.926050	284.270137	1145.942560	-400.889136	403.399999	987.142901	-34.612221	453.091673	913.674993	-44.559163	458.959608	827.047417	-48.945032	483.129720	925.461834	-62.932041	480.939032	712.050645	-65.129818	448.732601	711.075809	-173.063488	367.062336	646.461762	-28.657748	314.604437	573.489395	-50.933246	239.547626	536.704892	-51.024056	348.622291	565.697997	-98.019466	139.468840	467.936189	-56.082658	191.280715	482.241880	-162.651919	77.653698	513.620313	-106.692459	0.000000	0.000000	-0.000000	0.000000	0.000000	-0.000000	359.154301	1030.811388	-416.069869	427.726944	977.051757	-420.988059	457.265198	998.109674	-414.007573	459.745470	894.049542	-423.936619	517.505055	776.976131	-410.424730	0.000000	0.000000	-0.000000	347.794436	390.385446	-398.938978	375.246615	403.944414	-320.718146	276.009323	374.266101	-359.098740	470.695270	292.772498	-430.368587	468.138003	656.245470	-430.721082	454.339207	574.913322	-415.190067	400.315702	504.162757	-411.124749	477.197301	569.255759	-382.622874	557.929536	313.503642	-365.593281	-139.217063	941.253819	-229.615625	15.760064	79.779226	-427.829508	16.191988	78.868305	-31.326559	
4	0.0200	850.079969	1373.708397	-241.832067	803.043082	1346.112900	-501.327544	791.747662	1411.164765	-338.656498	786.303989	1249.139539	-343.464723	746.409206	1165.390298	-7.220777	805.306119	890.677113	-64.071979	636.500729	1101.504978	-556.440128	803.535009	914.145181	-455.354519	226.820048	1265.957373	-201.198261	343.761917	1239.340438	-381.670014	423.979654	1248.180753	-81.410821	379.307653	1199.988069	-346.053283	421.025797	1184.908404	-114.849365	275.793258	1301.162816	-157.529845	254.654179	1305.338402	-250.530074	330.341780	1142.444496	-25.377509	283.907161	1140.711818	-401.284074	404.785959	987.586900	-34.769794	455.290951	914.558323	-43.415593	463.198101	827.811718	-48.545158	485.351633	927.153452	-61.937017	487.430078	715.121016	-66.056877	454.619132	713.737877	-173.643879	372.495559	651.620016	-29.270740	320.426599	580.539145	-48.306516	242.007432	545.179104	-51.888616	344.033675	568.392526	-98.250281	141.292689	478.665514	-56.131672	0.000000	0.000000	-0.000000	79.411108	524.603046	-106.662169	0.000000	0.000000	-0.000000	0.000000	0.000000	-0.000000	357.584617	1024.325446	-415.806532	425.010482	969.286877	-419.905473	454.999717	989.697621	-412.980106	455.601155	885.901962	-421.946023	508.878311	768.651871	-409.490041	501.970952	733.309217	-327.334126	345.745713	380.257832	-398.976527	373.054918	394.385608	-320.400149	274.985820	363.511653	-358.352357	467.543845	281.980913	-430.602304	461.580004	647.413864	-429.758805	449.855190	566.776878	-415.935604	396.640322	494.292640	-410.322676	473.244922	561.264423	-382.955908	555.149938	302.361424	-365.769137	-139.100490	941.166364	-229.270191	15.443591	80.141917	-427.710970	16.221619	78.766881	-31.307153	
